<?xml version="1.0" encoding="UTF-8"?>
<svg xmlns="http://www.w3.org/2000/svg" xmlns:xlink="http://www.w3.org/1999/xlink" width="215px" height="215px" viewBox="0 0 215 179" version="1.1">
<g id="surface1">
<path style=" stroke:none;fill-rule:nonzero;fill:rgb(42.352941%,38.823529%,100%);fill-opacity:1;" d="M 53.652344 137.730469 L 207.960938 137.730469 C 211.675781 137.730469 214.691406 134.71875 214.691406 131.003906 L 214.691406 41.777344 C 214.691406 41.179688 214.613281 40.585938 214.453125 40.011719 C 213.65625 37.078125 210.996094 35.046875 207.960938 35.046875 L 147.6875 35.046875 C 146.28125 37.414062 145.417969 40.0625 145.152344 42.804688 C 144.402344 50.773438 148.972656 58.144531 153.0625 65.027344 C 157.152344 71.910156 161.050781 79.914062 158.886719 87.625 C 157.421875 92.824219 153.453125 96.585938 148.53125 98.839844 C 143.800781 100.933594 138.59375 101.726562 133.457031 101.136719 C 130.367188 100.746094 127.328125 100.054688 124.378906 99.066406 C 120.507812 97.808594 116.730469 96.179688 112.957031 94.53125 C 112.953125 94.53125 112.953125 94.53125 112.949219 94.53125 C 112.886719 94.5 112.816406 94.46875 112.753906 94.441406 C 109.832031 93.167969 106.917969 91.890625 103.957031 90.761719 C 100.488281 89.40625 96.890625 88.414062 93.214844 87.804688 C 87.636719 86.929688 82.007812 87.246094 77.027344 89.777344 C 68.910156 93.898438 64.5625 102.808594 61.160156 111.253906 C 57.722656 119.792969 54.640625 128.613281 53.652344 137.730469 Z M 53.652344 137.730469 "/>
<path style=" stroke:none;fill-rule:nonzero;fill:rgb(42.352941%,38.823529%,100%);fill-opacity:1;" d="M 0.308594 103.597656 L 0.308594 131.003906 C 0.308594 134.71875 3.324219 137.730469 7.039062 137.730469 L 32.691406 137.730469 C 33.132812 133.597656 32.761719 129.476562 31.132812 125.632812 C 27.582031 117.25 18.996094 112.292969 10.808594 108.3125 C 7.367188 106.640625 3.867188 105.027344 0.308594 103.597656 Z M 0.308594 103.597656 "/>
<path style=" stroke:none;fill-rule:nonzero;fill:rgb(42.352941%,38.823529%,100%);fill-opacity:1;" d="M 27.191406 131.402344 C 27.191406 135.117188 30.203125 138.132812 33.921875 138.132812 L 59.574219 138.132812 C 60.015625 133.996094 59.644531 129.875 58.015625 126.03125 C 57.179688 124.0625 55.230469 121.878906 52.691406 119.675781 C 42.726562 111.023438 27.191406 118.207031 27.191406 131.402344 Z M 27.191406 131.402344 "/>
<path style=" stroke:none;fill-rule:nonzero;fill:rgb(24.705882%,23.921569%,33.72549%);fill-opacity:1;" d="M 0 131.003906 L 0 41.777344 C 0.00390625 37.890625 3.152344 34.742188 7.039062 34.738281 L 207.960938 34.738281 C 211.847656 34.742188 214.996094 37.890625 215 41.777344 L 215 131.003906 C 214.996094 134.886719 211.847656 138.039062 207.960938 138.042969 L 7.039062 138.042969 C 3.152344 138.039062 0.00390625 134.886719 0 131.003906 Z M 7.039062 35.355469 C 3.496094 35.359375 0.625 38.230469 0.621094 41.777344 L 0.621094 131.003906 C 0.625 134.546875 3.496094 137.417969 7.039062 137.421875 L 207.960938 137.421875 C 211.503906 137.417969 214.375 134.546875 214.378906 131.003906 L 214.378906 41.777344 C 214.375 38.230469 211.503906 35.359375 207.960938 35.355469 Z M 7.039062 35.355469 "/>
<path style=" stroke:none;fill-rule:nonzero;fill:rgb(24.705882%,23.921569%,33.72549%);fill-opacity:1;" d="M 66.488281 137.511719 L 75.613281 137.511719 C 77.171875 132.257812 79.425781 126.6875 81.484375 121.613281 C 85.429688 111.882812 90.46875 101.613281 99.878906 96.863281 C 103.898438 94.832031 108.277344 94.039062 112.753906 94.082031 C 118.933594 94.140625 125.285156 95.800781 131.101562 98 C 133.484375 98.898438 135.839844 99.882812 138.191406 100.890625 C 147.039062 104.695312 155.789062 108.835938 165.304688 109.953125 C 177.34375 111.371094 191.503906 105.984375 194.789062 94.378906 C 197.300781 85.496094 192.78125 76.273438 188.039062 68.339844 C 183.300781 60.40625 178 51.917969 178.867188 42.734375 C 178.867188 42.703125 178.871094 42.667969 178.878906 42.636719 C 179.203125 39.339844 181.175781 36.96875 183.925781 35.445312 L 171.945312 35.445312 C 171.785156 44.015625 176.742188 51.578125 181.203125 59.046875 C 185.945312 66.976562 190.464844 76.203125 187.957031 85.085938 C 184.667969 96.6875 157.4375 83.089844 145.394531 81.671875 C 141.996094 81.273438 147.398438 82.6875 144.15625 81.671875 C 139.070312 80.078125 138.507812 94.699219 133.558594 92.550781 C 130.476562 91.214844 127.394531 89.882812 124.269531 88.703125 C 122.976562 88.214844 121.652344 87.753906 120.316406 87.328125 C 120.3125 87.328125 120.3125 87.328125 120.308594 87.324219 C 111.332031 84.480469 101.511719 83.375 93.214844 87.484375 C 93.160156 87.511719 93.101562 87.539062 93.046875 87.570312 C 83.636719 92.316406 78.59375 102.585938 74.648438 112.316406 C 71.386719 120.359375 68.097656 129.027344 66.488281 137.511719 Z M 66.488281 137.511719 "/>
<path style=" stroke:none;fill-rule:nonzero;fill:rgb(24.705882%,23.921569%,33.72549%);fill-opacity:1;" d="M 66.585938 73.558594 L 7.242188 73.558594 C 6.226562 73.558594 5.40625 74.378906 5.40625 75.390625 C 5.40625 76.402344 6.226562 77.222656 7.242188 77.222656 L 66.585938 77.222656 C 67.601562 77.222656 68.421875 76.402344 68.421875 75.390625 C 68.421875 74.378906 67.601562 73.558594 66.585938 73.558594 Z M 66.585938 73.558594 "/>
<path style=" stroke:none;fill-rule:nonzero;fill:rgb(24.705882%,23.921569%,33.72549%);fill-opacity:1;" d="M 25.683594 63.277344 L 7.28125 63.277344 C 6.269531 63.277344 5.449219 64.097656 5.449219 65.109375 C 5.449219 66.125 6.269531 66.945312 7.28125 66.945312 L 25.683594 66.945312 C 26.695312 66.945312 27.515625 66.125 27.515625 65.109375 C 27.515625 64.097656 26.695312 63.277344 25.683594 63.277344 Z M 25.683594 63.277344 "/>
<path style=" stroke:none;fill-rule:nonzero;fill:rgb(100%,71.372549%,71.372549%);fill-opacity:1;" d="M 96.640625 170.601562 L 92.878906 170.570312 L 91.214844 155.722656 L 96.765625 155.769531 Z M 96.640625 170.601562 "/>
<path style=" stroke:none;fill-rule:nonzero;fill:rgb(18.431373%,18.039216%,25.490196%);fill-opacity:1;" d="M 84.59375 176.582031 C 84.585938 177.507812 85.332031 178.269531 86.261719 178.277344 L 93.738281 178.339844 L 95.046875 175.6875 L 95.527344 178.351562 L 98.351562 178.378906 L 97.636719 168.867188 L 96.65625 168.800781 L 92.652344 168.527344 L 91.359375 168.4375 L 91.335938 171.128906 L 85.328125 175.203125 C 84.875 175.515625 84.597656 176.027344 84.59375 176.582031 Z M 84.59375 176.582031 "/>
<path style=" stroke:none;fill-rule:nonzero;fill:rgb(100%,71.372549%,71.372549%);fill-opacity:1;" d="M 134.800781 170.601562 L 131.039062 170.570312 L 129.375 155.722656 L 134.925781 155.769531 Z M 134.800781 170.601562 "/>
<path style=" stroke:none;fill-rule:nonzero;fill:rgb(18.431373%,18.039216%,25.490196%);fill-opacity:1;" d="M 122.753906 176.582031 C 122.746094 177.507812 123.492188 178.269531 124.421875 178.277344 L 131.898438 178.339844 L 133.207031 175.6875 L 133.6875 178.351562 L 136.511719 178.378906 L 135.796875 168.867188 L 134.816406 168.800781 L 130.8125 168.527344 L 129.519531 168.4375 L 129.496094 171.128906 L 123.488281 175.203125 C 123.035156 175.515625 122.757812 176.027344 122.753906 176.582031 Z M 122.753906 176.582031 "/>
<path style=" stroke:none;fill-rule:nonzero;fill:rgb(100%,71.372549%,71.372549%);fill-opacity:1;" d="M 92 51.722656 L 108.929688 38.695312 C 110.417969 37.542969 110.707031 35.40625 109.578125 33.902344 C 109.007812 33.144531 108.15625 32.652344 107.214844 32.542969 C 106.277344 32.433594 105.332031 32.714844 104.605469 33.324219 L 87.4375 47.394531 L 76.644531 55.503906 C 75.550781 54.867188 74.175781 54.984375 73.203125 55.796875 C 72.234375 56.605469 71.871094 57.9375 72.304688 59.128906 C 72.734375 60.320312 73.863281 61.113281 75.128906 61.113281 C 76.394531 61.113281 77.527344 60.324219 77.960938 59.132812 Z M 92 51.722656 "/>
<path style=" stroke:none;fill-rule:nonzero;fill:rgb(62.745098%,38.039216%,41.568627%);fill-opacity:1;" d="M 105.796875 54.714844 L 105.050781 71.378906 L 130.394531 74.445312 C 128.398438 67.75 125.128906 58.449219 126.628906 53.789062 Z M 105.796875 54.714844 "/>
<path style=" stroke:none;fill-rule:nonzero;fill:rgb(90.196078%,90.196078%,90.196078%);fill-opacity:1;" d="M 120.203125 24.167969 L 112.398438 24.167969 L 109.042969 29.902344 L 107.445312 29.816406 C 104.332031 31.015625 103.09375 32.253906 101.375 35.5625 L 95.335938 40.628906 L 99.988281 46.214844 C 103.203125 45.6875 104.363281 43.195312 103.34375 38.609375 C 103.34375 38.609375 99.824219 44.746094 104.894531 47.761719 C 104.894531 47.761719 103.988281 53.449219 104.894531 53.386719 C 105.796875 53.328125 107.878906 52.167969 105.796875 53.328125 C 103.714844 54.484375 104.070312 54.535156 104.140625 54.910156 C 105.265625 61.105469 106.195312 65.757812 106.195312 65.757812 L 128.222656 67.929688 C 128.222656 67.929688 126.953125 54.609375 127.023438 53.851562 C 127.089844 53.09375 126.628906 54.945312 127.089844 53.09375 C 127.554688 51.242188 128.25 51.9375 127.554688 51.242188 C 126.859375 50.550781 132.328125 49.953125 130.195312 46.613281 L 137.328125 44.753906 L 133.339844 35.273438 C 133.339844 32.074219 128.199219 29.480469 125 29.480469 L 124.589844 29.480469 Z M 120.203125 24.167969 "/>
<path style=" stroke:none;fill-rule:nonzero;fill:rgb(18.431373%,18.039216%,25.490196%);fill-opacity:1;" d="M 128.511719 65.414062 C 119.894531 68.378906 112.132812 67.726562 105.574219 62.035156 C 105.574219 62.035156 103.726562 68.859375 101.859375 67.929688 C 99.988281 67 100.914062 69.605469 100.402344 70.558594 C 99.855469 71.574219 100.488281 73.28125 98.6875 73.863281 C 96.886719 74.445312 97.5625 76.152344 96.980469 77.410156 C 92.902344 86.210938 88.246094 98.667969 85.097656 114.464844 C 81.863281 130.699219 89.753906 157.894531 89.753906 157.894531 L 97.199219 157.277344 L 99.058594 121.910156 L 107.574219 106.960938 C 107.574219 106.960938 111.757812 104.527344 109.128906 103.289062 C 106.503906 102.054688 108.265625 100.523438 110.175781 100.824219 C 112.089844 101.125 114.261719 91.199219 114.261719 91.199219 C 111.535156 98.050781 128.53125 158.515625 128.53125 158.515625 L 135.667969 157.894531 L 131.636719 73.515625 Z M 128.511719 65.414062 "/>
<path style=" stroke:none;fill-rule:nonzero;fill:rgb(18.431373%,18.039216%,25.490196%);fill-opacity:1;" d="M 124.835938 9.765625 C 125.683594 11.871094 128.070312 16.015625 128.394531 18.277344 L 128.246094 18.136719 C 127.96875 18.609375 127.65625 19.058594 127.304688 19.484375 C 126.675781 18.824219 125.917969 18.304688 125.078125 17.953125 C 125.535156 18.894531 125.800781 19.917969 125.859375 20.964844 C 124.304688 22.316406 120.335938 21.5 118.351562 22.222656 C 115.160156 23.378906 111.773438 23.792969 108.429688 24.132812 C 107.242188 24.257812 105.910156 24.332031 105.078125 23.628906 C 104.246094 22.925781 104.742188 21.628906 104.292969 20.644531 C 101.105469 13.644531 104.050781 11.121094 106.550781 7.945312 C 107.097656 7.246094 107.097656 6.203125 107.765625 5.539062 C 108.695312 4.613281 110.121094 4.332031 111.433594 4.101562 C 110.738281 4.140625 110.078125 3.8125 109.683594 3.238281 C 109.339844 2.660156 109.351562 1.933594 109.707031 1.363281 C 110.179688 0.585938 111.152344 0.132812 112.09375 0.0195312 C 113.023438 -0.0429688 113.953125 0.0390625 114.855469 0.257812 C 115.441406 0.335938 116.007812 0.515625 116.53125 0.792969 C 117.035156 1.0625 117.316406 1.613281 117.242188 2.179688 C 117.082031 2.695312 116.699219 3.113281 116.195312 3.308594 C 115.816406 3.46875 115.417969 3.578125 115.007812 3.632812 C 116.882812 3.390625 118.785156 3.722656 120.464844 4.589844 C 122.566406 5.710938 123.988281 7.660156 124.835938 9.765625 Z M 124.835938 9.765625 "/>
<path style=" stroke:none;fill-rule:nonzero;fill:rgb(100%,71.372549%,71.372549%);fill-opacity:1;" d="M 120.964844 14.058594 C 120.964844 18.214844 117.597656 21.582031 113.441406 21.582031 C 109.289062 21.582031 105.921875 18.214844 105.921875 14.058594 C 105.921875 9.90625 109.289062 6.539062 113.441406 6.539062 C 117.597656 6.539062 120.964844 9.90625 120.964844 14.058594 Z M 120.964844 14.058594 "/>
<path style=" stroke:none;fill-rule:nonzero;fill:rgb(18.431373%,18.039216%,25.490196%);fill-opacity:1;" d="M 120.679688 10.027344 C 120.246094 11.34375 118.996094 11.769531 117.847656 12.035156 C 117.484375 12.117188 117.117188 12.199219 116.75 12.269531 C 116.613281 12.097656 116.46875 11.929688 116.316406 11.773438 C 115.6875 11.113281 114.929688 10.59375 114.089844 10.242188 C 114.453125 10.988281 114.695312 11.785156 114.804688 12.605469 C 114.109375 12.707031 113.410156 12.789062 112.703125 12.851562 C 111.46875 13.113281 110.242188 12.363281 109.914062 11.140625 C 109.273438 12.1875 108.515625 13.175781 107.480469 13.59375 C 106.261719 14.027344 104.902344 13.621094 104.128906 12.589844 C 103.507812 11.832031 103.160156 10.816406 102.914062 9.832031 C 102.617188 8.664062 102.453125 7.320312 103.03125 6.582031 C 103.496094 5.980469 104.292969 5.96875 105.03125 6.023438 C 106.65625 6.148438 108.261719 6.441406 109.828125 6.894531 L 109.960938 7.191406 C 109.691406 5.574219 110.277344 4.019531 111.355469 3.46875 C 112.082031 3.097656 112.960938 3.160156 113.8125 3.234375 C 114.90625 3.285156 115.984375 3.492188 117.019531 3.855469 C 118.203125 4.3125 119.21875 5.121094 119.925781 6.175781 C 120.679688 7.324219 121.054688 8.886719 120.679688 10.027344 Z M 120.679688 10.027344 "/>
<path style=" stroke:none;fill-rule:nonzero;fill:rgb(18.431373%,18.039216%,25.490196%);fill-opacity:1;" d="M 109.957031 2.996094 C 110.03125 2.976562 109.839844 3.003906 109.90625 3.003906 C 109.875 3.003906 109.839844 3 109.808594 2.992188 C 109.800781 2.988281 109.726562 2.964844 109.777344 2.984375 C 109.664062 2.949219 109.566406 2.886719 109.488281 2.796875 C 109.3125 2.578125 109.175781 2.332031 109.082031 2.066406 C 108.960938 1.71875 108.769531 1.398438 108.515625 1.128906 C 108.371094 0.980469 108.164062 0.914062 107.960938 0.945312 C 107.757812 0.976562 107.582031 1.101562 107.488281 1.285156 C 107.339844 1.609375 107.476562 2.007812 107.578125 2.324219 C 107.6875 2.65625 107.847656 2.96875 108.054688 3.246094 C 108.402344 3.703125 108.875 4.050781 109.414062 4.242188 C 110.039062 4.472656 110.71875 4.492188 111.359375 4.300781 C 111.53125 4.226562 111.644531 4.0625 111.648438 3.875 C 111.652344 3.691406 111.546875 3.519531 111.375 3.441406 L 110.3125 3.003906 C 110.078125 2.902344 109.804688 3.007812 109.699219 3.242188 C 109.597656 3.480469 109.703125 3.753906 109.9375 3.855469 L 111 4.292969 L 111.019531 3.433594 C 110.886719 3.46875 110.75 3.492188 110.613281 3.5 C 110.464844 3.515625 110.316406 3.511719 110.171875 3.484375 C 110.035156 3.464844 109.898438 3.429688 109.765625 3.382812 C 109.679688 3.351562 109.597656 3.316406 109.515625 3.277344 C 109.488281 3.265625 109.457031 3.25 109.429688 3.234375 C 109.433594 3.234375 109.308594 3.164062 109.363281 3.195312 C 109.226562 3.109375 109.097656 3.007812 108.976562 2.898438 C 108.933594 2.855469 108.898438 2.8125 108.863281 2.769531 C 108.800781 2.695312 108.746094 2.617188 108.695312 2.535156 C 108.589844 2.363281 108.507812 2.179688 108.445312 1.988281 C 108.417969 1.90625 108.398438 1.824219 108.378906 1.742188 C 108.375 1.695312 108.363281 1.652344 108.355469 1.609375 C 108.3125 1.5 108.359375 1.667969 108.316406 1.714844 L 108.121094 1.859375 C 108.046875 1.882812 107.964844 1.867188 107.902344 1.824219 C 107.878906 1.792969 107.882812 1.796875 107.917969 1.839844 C 107.953125 1.890625 107.992188 1.945312 108.023438 2 C 108.09375 2.132812 108.15625 2.265625 108.210938 2.402344 C 108.328125 2.695312 108.476562 2.976562 108.652344 3.238281 C 109.007812 3.777344 109.667969 4.03125 110.296875 3.863281 C 110.53125 3.769531 110.652344 3.5 110.558594 3.261719 C 110.464844 3.027344 110.195312 2.910156 109.957031 2.996094 Z M 109.957031 2.996094 "/>
<path style=" stroke:none;fill-rule:nonzero;fill:rgb(100%,100%,100%);fill-opacity:1;" d="M 120.464844 62.472656 C 120.464844 74.753906 110.507812 84.710938 98.226562 84.710938 C 85.945312 84.710938 75.988281 74.753906 75.988281 62.472656 C 75.988281 50.191406 85.945312 40.234375 98.226562 40.234375 C 110.507812 40.234375 120.464844 50.191406 120.464844 62.472656 Z M 120.464844 62.472656 "/>
<path style=" stroke:none;fill-rule:nonzero;fill:rgb(24.705882%,23.921569%,33.72549%);fill-opacity:1;" d="M 98.226562 85.023438 C 85.773438 85.023438 75.675781 74.925781 75.675781 62.472656 C 75.675781 50.019531 85.773438 39.925781 98.226562 39.925781 C 110.679688 39.925781 120.777344 50.019531 120.777344 62.472656 C 120.761719 74.921875 110.675781 85.007812 98.226562 85.023438 Z M 98.226562 40.546875 C 86.113281 40.546875 76.296875 50.363281 76.296875 62.472656 C 76.296875 74.585938 86.113281 84.402344 98.226562 84.402344 C 110.339844 84.402344 120.15625 74.585938 120.15625 62.472656 C 120.140625 50.367188 110.332031 40.558594 98.226562 40.546875 Z M 98.226562 40.546875 "/>
<path style=" stroke:none;fill-rule:nonzero;fill:rgb(42.352941%,38.823529%,100%);fill-opacity:1;" d="M 95.191406 74.046875 C 94.414062 74.046875 93.679688 73.679688 93.214844 73.058594 L 87.144531 64.96875 C 86.328125 63.875 86.546875 62.324219 87.640625 61.503906 C 88.734375 60.6875 90.285156 60.90625 91.105469 62 L 95.074219 67.292969 L 105.269531 52 C 106.027344 50.863281 107.5625 50.558594 108.699219 51.316406 C 109.835938 52.074219 110.144531 53.609375 109.386719 54.746094 L 97.25 72.945312 C 96.804688 73.613281 96.0625 74.023438 95.261719 74.046875 C 95.238281 74.046875 95.214844 74.046875 95.191406 74.046875 Z M 95.191406 74.046875 "/>
<path style=" stroke:none;fill-rule:nonzero;fill:rgb(80%,80%,80%);fill-opacity:1;" d="M 73.730469 178.597656 C 73.730469 178.699219 73.769531 178.792969 73.835938 178.859375 C 73.90625 178.929688 74 178.96875 74.097656 178.96875 L 152.679688 178.96875 C 152.882812 178.96875 153.050781 178.804688 153.050781 178.597656 C 153.050781 178.394531 152.882812 178.230469 152.679688 178.230469 L 74.097656 178.230469 C 74 178.230469 73.90625 178.269531 73.835938 178.339844 C 73.769531 178.40625 73.730469 178.5 73.730469 178.597656 Z M 73.730469 178.597656 "/>
<path style=" stroke:none;fill-rule:nonzero;fill:rgb(100%,71.372549%,71.372549%);fill-opacity:1;" d="M 143.304688 63.234375 L 136.035156 43.152344 C 135.390625 41.382812 133.445312 40.457031 131.664062 41.078125 C 130.773438 41.386719 130.046875 42.050781 129.65625 42.914062 C 129.265625 43.777344 129.246094 44.761719 129.605469 45.636719 L 137.796875 66.265625 L 142.246094 79.011719 C 141.308594 79.863281 141 81.207031 141.476562 82.378906 C 141.957031 83.550781 143.117188 84.296875 144.382812 84.25 C 145.644531 84.199219 146.746094 83.363281 147.128906 82.160156 C 147.515625 80.953125 147.105469 79.636719 146.105469 78.863281 Z M 143.304688 63.234375 "/>
<path style=" stroke:none;fill-rule:nonzero;fill:rgb(90.196078%,90.196078%,90.196078%);fill-opacity:1;" d="M 132.363281 34.207031 L 138.261719 44.753906 C 138.261719 44.753906 124.675781 49.40625 124.640625 48.628906 C 124.609375 47.855469 125.316406 37.109375 125.316406 37.109375 Z M 132.363281 34.207031 "/>
</g>
</svg>
