<?xml version="1.0" encoding="UTF-8"?>
<svg xmlns="http://www.w3.org/2000/svg" xmlns:xlink="http://www.w3.org/1999/xlink" width="215px" height="215px" viewBox="0 0 215 217" version="1.1">
<g id="surface1">
<path style=" stroke:none;fill-rule:nonzero;fill:rgb(62.745098%,38.039216%,41.568627%);fill-opacity:1;" d="M 48.191406 36.265625 L 46.550781 44.847656 L 54.71875 47.144531 L 53.703125 37.984375 Z M 48.191406 36.265625 "/>
<path style=" stroke:none;fill-rule:nonzero;fill:rgb(24.705882%,23.921569%,33.72549%);fill-opacity:1;" d="M 0 213.914062 C 0 214.183594 0.21875 214.398438 0.488281 214.398438 L 214.378906 214.398438 C 214.648438 214.398438 214.863281 214.183594 214.863281 213.914062 C 214.863281 213.644531 214.648438 213.425781 214.378906 213.425781 L 0.488281 213.425781 C 0.21875 213.425781 0 213.644531 0 213.914062 Z M 0 213.914062 "/>
<path style=" stroke:none;fill-rule:nonzero;fill:rgb(100%,100%,100%);fill-opacity:1;" d="M 145.804688 97.386719 L 61.578125 97.386719 C 52.027344 97.386719 44.285156 105.113281 44.285156 114.644531 L 44.285156 196.148438 C 44.285156 205.679688 52.027344 213.40625 61.578125 213.40625 L 145.804688 213.40625 C 155.355469 213.40625 163.101562 205.679688 163.101562 196.148438 L 163.101562 114.644531 C 163.101562 105.113281 155.355469 97.386719 145.804688 97.386719 Z M 145.804688 97.386719 "/>
<path style=" stroke:none;fill-rule:nonzero;fill:rgb(24.705882%,23.921569%,33.72549%);fill-opacity:1;" d="M 145.804688 213.8125 L 61.578125 213.8125 C 51.816406 213.8125 43.875 205.886719 43.875 196.148438 L 43.875 114.644531 C 43.875 104.90625 51.816406 96.980469 61.578125 96.980469 L 145.804688 96.980469 C 155.566406 96.980469 163.507812 104.90625 163.507812 114.644531 L 163.507812 196.148438 C 163.507812 205.886719 155.566406 213.8125 145.804688 213.8125 Z M 61.578125 97.796875 C 52.269531 97.796875 44.695312 105.355469 44.695312 114.644531 L 44.695312 196.148438 C 44.695312 205.4375 52.269531 212.996094 61.578125 212.996094 L 145.804688 212.996094 C 155.117188 212.996094 162.691406 205.4375 162.691406 196.148438 L 162.691406 114.644531 C 162.691406 105.355469 155.117188 97.796875 145.804688 97.796875 Z M 61.578125 97.796875 "/>
<path style=" stroke:none;fill-rule:nonzero;fill:rgb(42.352941%,38.823529%,100%);fill-opacity:1;" d="M 151.90625 132.722656 L 118.050781 132.722656 C 116.617188 132.722656 115.449219 131.554688 115.449219 130.121094 C 115.449219 128.691406 116.617188 127.523438 118.050781 127.523438 L 151.90625 127.523438 C 153.34375 127.523438 154.511719 128.691406 154.511719 130.121094 C 154.511719 131.554688 153.34375 132.722656 151.90625 132.722656 Z M 151.90625 132.722656 "/>
<path style=" stroke:none;fill-rule:nonzero;fill:rgb(42.352941%,38.823529%,100%);fill-opacity:1;" d="M 120.148438 153.15625 L 87.238281 153.15625 C 86.410156 153.15625 85.734375 152.484375 85.734375 151.65625 C 85.734375 150.828125 86.410156 150.15625 87.238281 150.15625 L 120.148438 150.15625 C 120.976562 150.15625 121.652344 150.828125 121.652344 151.65625 C 121.652344 152.484375 120.976562 153.15625 120.148438 153.15625 Z M 120.148438 153.15625 "/>
<path style=" stroke:none;fill-rule:nonzero;fill:rgb(42.352941%,38.823529%,100%);fill-opacity:1;" d="M 54.847656 102.96875 L 73.632812 102.96875 C 73.703125 102.96875 73.761719 103.027344 73.761719 103.097656 L 73.761719 105.277344 C 73.761719 105.347656 73.703125 105.40625 73.632812 105.40625 L 54.847656 105.40625 C 54.777344 105.40625 54.71875 105.347656 54.71875 105.277344 L 54.71875 103.097656 C 54.71875 103.027344 54.777344 102.96875 54.847656 102.96875 Z M 54.847656 102.96875 "/>
<path style=" stroke:none;fill-rule:nonzero;fill:rgb(24.705882%,23.921569%,33.72549%);fill-opacity:1;" d="M 138.871094 103.457031 C 138.871094 104.53125 137.996094 105.40625 136.917969 105.40625 C 135.839844 105.40625 134.964844 104.53125 134.964844 103.457031 C 134.964844 102.378906 135.839844 101.507812 136.917969 101.507812 C 137.996094 101.507812 138.871094 102.378906 138.871094 103.457031 Z M 138.871094 103.457031 "/>
<path style=" stroke:none;fill-rule:nonzero;fill:rgb(24.705882%,23.921569%,33.72549%);fill-opacity:1;" d="M 144.242188 103.457031 C 144.242188 104.53125 143.367188 105.40625 142.289062 105.40625 C 141.210938 105.40625 140.335938 104.53125 140.335938 103.457031 C 140.335938 102.378906 141.210938 101.507812 142.289062 101.507812 C 143.367188 101.507812 144.242188 102.378906 144.242188 103.457031 Z M 144.242188 103.457031 "/>
<path style=" stroke:none;fill-rule:nonzero;fill:rgb(24.705882%,23.921569%,33.72549%);fill-opacity:1;" d="M 149.613281 103.457031 C 149.613281 104.53125 148.738281 105.40625 147.660156 105.40625 C 146.582031 105.40625 145.707031 104.53125 145.707031 103.457031 C 145.707031 102.378906 146.582031 101.507812 147.660156 101.507812 C 148.738281 101.507812 149.613281 102.378906 149.613281 103.457031 Z M 149.613281 103.457031 "/>
<path style=" stroke:none;fill-rule:nonzero;fill:rgb(24.705882%,23.921569%,33.72549%);fill-opacity:1;" d="M 61.375 161.195312 C 61.375 161.464844 61.589844 161.679688 61.863281 161.679688 L 145.523438 161.679688 C 145.792969 161.679688 146.011719 161.464844 146.011719 161.195312 C 146.011719 160.925781 145.792969 160.707031 145.523438 160.707031 L 61.863281 160.707031 C 61.589844 160.707031 61.375 160.925781 61.375 161.195312 Z M 61.375 161.195312 "/>
<path style=" stroke:none;fill-rule:nonzero;fill:rgb(62.745098%,38.039216%,41.568627%);fill-opacity:1;" d="M 86.890625 41.242188 C 88.671875 39.773438 90.875 39.5 91.808594 40.628906 C 92.746094 41.761719 92.0625 43.867188 90.28125 45.335938 C 89.578125 45.933594 88.738281 46.355469 87.839844 46.5625 L 80.214844 52.6875 L 77.410156 49.058594 L 85.222656 43.402344 C 85.597656 42.558594 86.167969 41.816406 86.890625 41.242188 Z M 86.890625 41.242188 "/>
<path style=" stroke:none;fill-rule:nonzero;fill:rgb(90.196078%,90.196078%,90.196078%);fill-opacity:1;" d="M 42.816406 55.066406 C 42.8125 54.796875 42.816406 52.429688 44.570312 50.9375 C 46.582031 49.222656 49.425781 49.914062 50.421875 50.160156 C 52.726562 50.722656 52.914062 51.707031 55.078125 52.722656 C 59.125 54.617188 54.054688 53.644531 56.460938 53.039062 C 57.296875 52.828125 69.285156 52 72.269531 50.164062 C 78.074219 46.601562 82.027344 44.4375 82.027344 44.4375 L 84.613281 49.597656 C 84.613281 49.597656 80.875 54.785156 75.613281 58.628906 C 70.214844 62.570312 67.519531 64.542969 63.417969 65.304688 C 63.0625 65.367188 54.378906 66.847656 47.382812 61.632812 C 45.785156 60.445312 42.863281 58.265625 42.816406 55.066406 Z M 42.816406 55.066406 "/>
<path style=" stroke:none;fill-rule:nonzero;fill:rgb(62.745098%,38.039216%,41.568627%);fill-opacity:1;" d="M 59.84375 32.957031 C 59.84375 37.917969 55.8125 41.941406 50.835938 41.941406 C 45.863281 41.941406 41.832031 37.917969 41.832031 32.957031 C 41.832031 27.992188 45.863281 23.96875 50.835938 23.96875 C 55.8125 23.96875 59.84375 27.992188 59.84375 32.957031 Z M 59.84375 32.957031 "/>
<path style=" stroke:none;fill-rule:nonzero;fill:rgb(62.745098%,38.039216%,41.568627%);fill-opacity:1;" d="M 121.371094 93.335938 L 112.097656 83.863281 L 107.308594 88.847656 L 114.21875 97.929688 L 121.074219 98.714844 Z M 121.371094 93.335938 "/>
<path style=" stroke:none;fill-rule:nonzero;fill:rgb(18.431373%,18.039216%,25.490196%);fill-opacity:1;" d="M 68.410156 75.570312 C 68.953125 75.617188 70.675781 75.960938 72.324219 75.054688 C 73.449219 74.4375 74.023438 73.519531 74.21875 73.226562 C 76.636719 69.605469 85.914062 63.957031 94.238281 63.609375 C 96.121094 63.53125 97.363281 63.75 98.492188 64.335938 C 100.089844 65.167969 100.730469 66.359375 102.757812 69.152344 C 103.871094 70.679688 105.097656 72.117188 106.222656 73.632812 C 112.800781 82.515625 115.292969 83.214844 115.039062 86.0625 C 114.753906 89.222656 111.339844 92.21875 109.070312 91.875 C 108.140625 91.730469 107.78125 91.085938 106.539062 89.78125 C 102.898438 85.953125 101.390625 86.660156 98.800781 83.726562 C 95.773438 80.304688 96.167969 77.464844 94.589844 77.355469 C 93.125 77.253906 92.503906 79.675781 89.378906 82.894531 C 87.945312 84.363281 86.929688 85.039062 83.824219 87.1875 C 71.738281 95.554688 71.546875 96.144531 69.105469 96.808594 C 68.039062 97.101562 60.464844 99.175781 57.769531 95.878906 C 53.546875 90.71875 63.519531 75.164062 68.410156 75.570312 Z M 68.410156 75.570312 "/>
<path style=" stroke:none;fill-rule:nonzero;fill:rgb(18.431373%,18.039216%,25.490196%);fill-opacity:1;" d="M 118.535156 95.480469 C 119.21875 95.171875 120.015625 94.816406 120.273438 93.992188 C 120.445312 93.4375 120.347656 92.75 119.988281 92.277344 C 119.574219 91.730469 118.960938 91.660156 118.984375 91.5625 C 119.023438 91.414062 120.472656 91.472656 122.0625 92.035156 C 122.363281 92.140625 123.726562 92.636719 125.453125 93.984375 C 126.839844 95.0625 126.65625 95.28125 127.523438 95.902344 C 130.191406 97.816406 132.695312 96.308594 134.140625 98.101562 C 134.695312 98.792969 134.933594 99.773438 134.699219 100.570312 C 134.230469 102.164062 131.9375 102.714844 130.6875 102.996094 C 127.671875 103.679688 125.390625 103.121094 123.007812 102.722656 C 114.90625 101.359375 110.351562 102.601562 109.742188 100.726562 C 109.628906 100.371094 109.816406 100.402344 110.4375 97.800781 C 111.054688 95.234375 111.035156 94.527344 111.5625 94.320312 C 112.351562 94.011719 112.882812 95.421875 114.875 95.902344 C 116.636719 96.328125 118.09375 95.675781 118.535156 95.480469 Z M 118.535156 95.480469 "/>
<path style=" stroke:none;fill-rule:nonzero;fill:rgb(62.745098%,38.039216%,41.568627%);fill-opacity:1;" d="M 104.882812 124.332031 L 102.539062 111.296875 L 95.773438 112.734375 L 96.378906 124.125 L 101.609375 128.613281 Z M 104.882812 124.332031 "/>
<path style=" stroke:none;fill-rule:nonzero;fill:rgb(18.431373%,18.039216%,25.490196%);fill-opacity:1;" d="M 71.054688 79.953125 C 71.480469 80.292969 72.710938 81.546875 74.585938 81.71875 C 75.863281 81.839844 76.855469 81.402344 77.183594 81.269531 C 81.21875 79.628906 92.074219 80.152344 99.15625 84.53125 C 100.761719 85.519531 101.667969 86.398438 102.269531 87.515625 C 103.125 89.097656 102.980469 90.441406 103.089844 93.890625 C 103.148438 95.773438 103.355469 97.652344 103.433594 99.539062 C 103.878906 110.574219 105.546875 112.550781 103.734375 114.761719 C 101.722656 117.21875 97.210938 117.785156 95.527344 116.226562 C 94.835938 115.589844 94.902344 114.855469 94.609375 113.078125 C 93.75 107.871094 92.105469 107.609375 91.613281 103.730469 C 91.035156 99.203125 92.957031 97.078125 91.714844 96.101562 C 90.558594 95.195312 88.683594 96.851562 84.285156 97.761719 C 82.273438 98.179688 81.050781 98.164062 77.273438 98.203125 C 62.566406 98.355469 62.074219 98.734375 59.679688 97.917969 C 58.632812 97.5625 51.199219 95.035156 50.824219 90.792969 C 50.234375 84.15625 67.238281 76.878906 71.054688 79.953125 Z M 71.054688 79.953125 "/>
<path style=" stroke:none;fill-rule:nonzero;fill:rgb(18.431373%,18.039216%,25.490196%);fill-opacity:1;" d="M 101.332031 124.515625 C 102.066406 124.644531 102.929688 124.796875 103.601562 124.257812 C 104.058594 123.898438 104.363281 123.273438 104.332031 122.679688 C 104.296875 121.996094 103.832031 121.59375 103.90625 121.527344 C 104.019531 121.425781 105.1875 122.285156 106.1875 123.640625 C 106.375 123.898438 107.222656 125.070312 107.898438 127.15625 C 108.4375 128.824219 108.160156 128.898438 108.527344 129.902344 C 109.660156 132.980469 112.578125 133.136719 112.765625 135.429688 C 112.835938 136.3125 112.480469 137.257812 111.839844 137.785156 C 110.554688 138.839844 108.347656 138.011719 107.152344 137.542969 C 104.277344 136.421875 102.699219 134.679688 100.953125 133.015625 C 95.015625 127.347656 90.550781 125.820312 91.101562 123.929688 C 91.203125 123.570312 91.34375 123.703125 93.324219 121.898438 C 95.28125 120.121094 95.660156 119.523438 96.210938 119.648438 C 97.039062 119.835938 96.683594 121.296875 98.0625 122.8125 C 99.28125 124.15625 100.855469 124.429688 101.332031 124.515625 Z M 101.332031 124.515625 "/>
<path style=" stroke:none;fill-rule:nonzero;fill:rgb(18.431373%,18.039216%,25.490196%);fill-opacity:1;" d="M 52.066406 34.671875 C 52.414062 33.421875 51.976562 32.964844 52.425781 32.402344 C 52.425781 32.402344 52.605469 32.179688 54.21875 31.566406 C 53.742188 28.808594 54.101562 28.34375 54.101562 28.34375 C 54.511719 27.804688 55.335938 27.675781 55.894531 27.746094 C 57.082031 27.894531 57.289062 28.964844 58.050781 28.941406 C 59.097656 28.90625 60.355469 26.8125 59.964844 25 C 59.648438 23.519531 58.273438 22.417969 57.929688 22.609375 C 57.589844 22.796875 56.359375 21.964844 55.894531 22.132812 C 55.578125 22.246094 54.078125 22.09375 53.742188 22.25 C 53.371094 22.421875 52.308594 23.492188 52.207031 23.355469 C 51.5 22.421875 51.515625 22.09375 51.105469 21.894531 C 50.382812 21.535156 49.59375 22.195312 48.234375 22.847656 C 45.4375 24.191406 44.617188 23.390625 43.328125 24.519531 C 42.675781 25.089844 42.324219 26.183594 41.652344 28.34375 C 40.710938 31.363281 40.238281 32.875 40.691406 34.316406 C 41.15625 35.785156 41.839844 35.464844 42.847656 37.539062 C 43.96875 39.851562 43.582031 41.191406 44.644531 41.722656 C 45.460938 42.128906 46.78125 41.871094 47.277344 41.125 C 48.128906 39.847656 45.929688 38.121094 46.679688 36.105469 C 47.140625 34.871094 48.558594 33.933594 49.429688 34.195312 C 50.417969 34.492188 50.488281 36.253906 51.105469 36.226562 C 51.636719 36.203125 52.003906 34.890625 52.066406 34.671875 Z M 52.066406 34.671875 "/>
<path style=" stroke:none;fill-rule:nonzero;fill:rgb(90.196078%,90.196078%,90.196078%);fill-opacity:1;" d="M 45.242188 43.273438 C 47.085938 41.210938 54.59375 43.347656 55.296875 46.617188 C 55.585938 47.964844 54.515625 48.53125 54.816406 50.082031 C 55.257812 52.347656 57.753906 52.195312 59.605469 54.503906 C 62.234375 57.777344 59.527344 60.980469 62.480469 66.445312 C 63.109375 67.617188 63.640625 68.601562 64.753906 69.554688 C 67.304688 71.738281 69.679688 70.988281 70.976562 73.015625 C 71.949219 74.53125 71.550781 76.402344 71.457031 76.839844 C 71.074219 78.632812 70.035156 79.070312 69.300781 80.542969 C 68.082031 82.988281 69.460938 84.785156 69.542969 87.710938 C 69.640625 91.367188 67.691406 96.4375 63.796875 98.101562 C 59.417969 99.96875 54.140625 96.875 51.585938 93.800781 C 50.0625 91.96875 49.621094 90.273438 48.953125 88.1875 C 45.972656 78.855469 44.289062 79.699219 42.011719 72.300781 C 39.40625 63.84375 38.890625 53.933594 42.011719 50.800781 C 42.421875 50.382812 43.558594 49.421875 44.285156 47.695312 C 45.257812 45.367188 44.417969 44.195312 45.242188 43.273438 Z M 45.242188 43.273438 "/>
<path style=" stroke:none;fill-rule:nonzero;fill:rgb(62.745098%,38.039216%,41.568627%);fill-opacity:1;" d="M 72.476562 91.277344 C 73.902344 93.089844 74.125 95.292969 72.96875 96.203125 C 71.8125 97.109375 69.71875 96.375 68.289062 94.5625 C 67.710938 93.847656 67.308594 93.003906 67.121094 92.101562 L 61.164062 84.347656 L 64.242188 82.003906 L 70.347656 89.566406 C 71.183594 89.960938 71.914062 90.546875 72.476562 91.277344 Z M 72.476562 91.277344 "/>
<path style=" stroke:none;fill-rule:nonzero;fill:rgb(90.196078%,90.196078%,90.196078%);fill-opacity:1;" d="M 50.65625 51.132812 C 50.921875 51.074219 53.242188 50.59375 55.066406 52.003906 C 57.160156 53.621094 57.058594 56.539062 57.023438 57.5625 C 56.941406 59.925781 56.011719 60.3125 55.460938 62.632812 C 54.425781 66.972656 56.394531 71.003906 57.480469 73.234375 C 57.859375 74.003906 59.066406 76.363281 61.472656 78.90625 C 66.15625 83.847656 70.332031 86.449219 70.332031 86.449219 L 65.847656 90.429688 C 65.847656 90.429688 58.699219 88.253906 53.855469 83.898438 C 48.886719 79.429688 41.246094 63.621094 39.660156 59.769531 C 39.523438 59.441406 41.457031 64.832031 45.144531 56.933594 C 45.988281 55.132812 47.53125 51.832031 50.65625 51.132812 Z M 50.65625 51.132812 "/>
<path style=" stroke:none;fill-rule:nonzero;fill:rgb(100%,71.372549%,71.372549%);fill-opacity:1;" d="M 112.1875 172.328125 C 109.335938 172.765625 107.25 174.585938 107.527344 176.398438 C 107.804688 178.207031 110.34375 179.324219 113.195312 178.886719 C 114.339844 178.726562 115.425781 178.296875 116.367188 177.632812 L 128.429688 175.632812 L 127.625 170.875 L 115.589844 172.574219 C 114.492188 172.222656 113.324219 172.136719 112.1875 172.328125 Z M 112.1875 172.328125 "/>
<path style=" stroke:none;fill-rule:nonzero;fill:rgb(90.196078%,90.196078%,90.196078%);fill-opacity:1;" d="M 164.164062 157.496094 L 159.488281 167.402344 L 135.976562 175.300781 L 116.464844 176.335938 L 115.976562 171.660156 L 137.121094 167.25 L 158.820312 157.019531 Z M 164.164062 157.496094 "/>
<path style=" stroke:none;fill-rule:nonzero;fill:rgb(100%,71.372549%,71.372549%);fill-opacity:1;" d="M 120.800781 195.101562 L 116.601562 205.699219 L 111.167969 202.003906 L 114.378906 190.910156 Z M 120.800781 195.101562 "/>
<path style=" stroke:none;fill-rule:nonzero;fill:rgb(100%,71.372549%,71.372549%);fill-opacity:1;" d="M 103.261719 191.160156 L 92.148438 201.757812 L 96.59375 206.441406 L 107.957031 197.566406 Z M 103.261719 191.160156 "/>
<path style=" stroke:none;fill-rule:nonzero;fill:rgb(100%,71.372549%,71.372549%);fill-opacity:1;" d="M 166.25 156.648438 L 166.125 155.789062 L 163.285156 150.242188 L 153.898438 152.707031 L 155.628906 160.347656 Z M 166.25 156.648438 "/>
<path style=" stroke:none;fill-rule:nonzero;fill:rgb(18.431373%,18.039216%,25.490196%);fill-opacity:1;" d="M 162.296875 193.625 L 162.585938 197.324219 C 162.585938 197.324219 163.777344 212.847656 154.144531 214.082031 C 144.511719 215.3125 140.3125 216.546875 134.632812 206.933594 L 125.738281 191.160156 L 120.546875 197.324219 L 113.636719 191.898438 C 113.636719 191.898438 118.578125 172.671875 122.527344 171.933594 C 123.023438 171.839844 123.515625 171.792969 124.003906 171.785156 C 127.273438 171.714844 130.359375 173.3125 132.316406 175.929688 L 143.523438 190.910156 L 147.601562 189.0625 Z M 162.296875 193.625 "/>
<path style=" stroke:none;fill-rule:nonzero;fill:rgb(18.431373%,18.039216%,25.490196%);fill-opacity:1;" d="M 108.941406 205.207031 L 111.167969 201.019531 L 117.589844 205.453125 C 117.589844 205.453125 119.070312 210.878906 116.847656 211.617188 C 114.625 212.355469 108.449219 211.371094 108.449219 211.371094 C 108.449219 211.371094 97.085938 213.835938 96.839844 211.617188 C 96.59375 209.398438 102.027344 208.90625 102.027344 208.90625 Z M 108.941406 205.207031 "/>
<path style=" stroke:none;fill-rule:nonzero;fill:rgb(18.431373%,18.039216%,25.490196%);fill-opacity:1;" d="M 133.148438 202.25 L 115.984375 191.457031 L 107.214844 199.292969 L 101.285156 192.390625 C 101.285156 192.390625 112.15625 176.367188 115.367188 175.628906 C 118.578125 174.890625 123.765625 174.398438 123.765625 174.398438 L 139.570312 188.941406 Z M 133.148438 202.25 "/>
<path style=" stroke:none;fill-rule:nonzero;fill:rgb(18.431373%,18.039216%,25.490196%);fill-opacity:1;" d="M 91.898438 200.769531 L 97.582031 206.933594 L 96.832031 207.574219 C 96.832031 207.574219 95.359375 213.980469 91.898438 211.8125 C 88.441406 209.644531 88.195312 209.152344 88.195312 209.152344 C 88.195312 209.152344 78.3125 211.371094 77.328125 207.425781 C 76.339844 203.484375 79.054688 204.222656 79.054688 204.222656 L 81.523438 205.699219 Z M 91.898438 200.769531 "/>
<path style=" stroke:none;fill-rule:nonzero;fill:rgb(100%,71.372549%,71.372549%);fill-opacity:1;" d="M 164.765625 147.53125 C 164.765625 151.886719 161.226562 155.417969 156.863281 155.417969 C 152.496094 155.417969 148.957031 151.886719 148.957031 147.53125 C 148.957031 143.171875 152.496094 139.640625 156.863281 139.640625 C 161.226562 139.640625 164.765625 143.171875 164.765625 147.53125 Z M 164.765625 147.53125 "/>
<path style=" stroke:none;fill-rule:nonzero;fill:rgb(90.196078%,90.196078%,90.196078%);fill-opacity:1;" d="M 155.011719 158.746094 L 166.371094 155.292969 C 166.371094 155.292969 170.820312 165.648438 170.078125 170.328125 C 169.335938 175.011719 162.585938 197.324219 162.585938 197.324219 L 147.601562 189.0625 C 147.601562 189.0625 147.351562 184.132812 146.613281 181.914062 C 145.871094 179.695312 143.523438 172.917969 148.710938 167.25 C 153.898438 161.578125 155.011719 158.746094 155.011719 158.746094 Z M 155.011719 158.746094 "/>
<path style=" stroke:none;fill-rule:nonzero;fill:rgb(100%,71.372549%,71.372549%);fill-opacity:1;" d="M 130.003906 210.503906 C 128.152344 212.714844 127.796875 215.457031 129.207031 216.632812 C 130.617188 217.804688 133.257812 216.964844 135.109375 214.753906 C 135.859375 213.878906 136.390625 212.839844 136.65625 211.71875 L 144.371094 202.253906 L 140.613281 199.21875 L 132.71875 208.441406 C 131.660156 208.902344 130.730469 209.609375 130.003906 210.503906 Z M 130.003906 210.503906 "/>
<path style=" stroke:none;fill-rule:nonzero;fill:rgb(90.196078%,90.196078%,90.196078%);fill-opacity:1;" d="M 163.726562 163.71875 L 166.410156 174.332031 L 153.265625 195.332031 L 139.847656 208.789062 L 135.5 205.1875 L 149.03125 188.382812 L 159.289062 166.734375 Z M 163.726562 163.71875 "/>
<path style=" stroke:none;fill-rule:nonzero;fill:rgb(18.431373%,18.039216%,25.490196%);fill-opacity:1;" d="M 149.574219 146.175781 C 151.601562 146.167969 151.71875 146.183594 152.046875 146.175781 C 154.558594 146.109375 155.21875 145.121094 156.492188 145.1875 C 158.765625 145.308594 155.765625 156.6875 154.515625 161.949219 C 153.292969 167.109375 157.429688 171.734375 157.726562 172.054688 C 161.925781 176.613281 169.304688 177.449219 170.570312 175.507812 C 171.597656 173.933594 167.964844 171.546875 168.84375 168.113281 C 169.699219 164.753906 173.664062 165.113281 174.769531 161.949219 C 175.929688 158.636719 172.03125 156.96875 169.582031 148.886719 C 168.175781 144.246094 168.425781 143.378906 167.113281 140.503906 C 163.605469 132.820312 146.410156 136.09375 148.339844 143.214844 C 148.714844 144.59375 147.71875 146.179688 149.574219 146.175781 Z M 149.574219 146.175781 "/>
<path style=" stroke:none;fill-rule:nonzero;fill:rgb(100%,100%,100%);fill-opacity:1;" d="M 174.816406 52.539062 L 91.742188 52.539062 C 89.394531 52.539062 87.484375 50.628906 87.484375 48.285156 L 87.484375 4.25 C 87.484375 1.90625 89.394531 0 91.742188 0 L 174.816406 0 C 177.164062 0 179.078125 1.90625 179.078125 4.25 L 179.078125 48.285156 C 179.078125 50.628906 177.164062 52.539062 174.816406 52.539062 Z M 174.816406 52.539062 "/>
<path style=" stroke:none;fill-rule:nonzero;fill:rgb(24.705882%,23.921569%,33.72549%);fill-opacity:1;" d="M 174.816406 52.539062 L 91.742188 52.539062 C 89.394531 52.539062 87.484375 50.628906 87.484375 48.285156 L 87.484375 4.25 C 87.484375 1.90625 89.394531 0 91.742188 0 L 174.816406 0 C 177.164062 0 179.078125 1.90625 179.078125 4.25 L 179.078125 48.285156 C 179.078125 50.628906 177.164062 52.539062 174.816406 52.539062 Z M 91.742188 0.710938 C 89.785156 0.710938 88.195312 2.296875 88.195312 4.25 L 88.195312 48.285156 C 88.195312 50.238281 89.785156 51.828125 91.742188 51.828125 L 174.816406 51.828125 C 176.773438 51.828125 178.363281 50.238281 178.363281 48.285156 L 178.363281 4.25 C 178.363281 2.296875 176.773438 0.710938 174.816406 0.710938 Z M 91.742188 0.710938 "/>
<path style=" stroke:none;fill-rule:nonzero;fill:rgb(24.705882%,23.921569%,33.72549%);fill-opacity:1;" d="M 169.472656 4.261719 C 169.472656 4.847656 168.992188 5.324219 168.40625 5.324219 C 167.816406 5.324219 167.335938 4.847656 167.335938 4.261719 C 167.335938 3.671875 167.816406 3.195312 168.40625 3.195312 C 168.992188 3.195312 169.472656 3.671875 169.472656 4.261719 Z M 169.472656 4.261719 "/>
<path style=" stroke:none;fill-rule:nonzero;fill:rgb(24.705882%,23.921569%,33.72549%);fill-opacity:1;" d="M 172.316406 4.261719 C 172.316406 4.847656 171.839844 5.324219 171.25 5.324219 C 170.660156 5.324219 170.183594 4.847656 170.183594 4.261719 C 170.183594 3.671875 170.660156 3.195312 171.25 3.195312 C 171.839844 3.195312 172.316406 3.671875 172.316406 4.261719 Z M 172.316406 4.261719 "/>
<path style=" stroke:none;fill-rule:nonzero;fill:rgb(24.705882%,23.921569%,33.72549%);fill-opacity:1;" d="M 175.164062 4.261719 C 175.164062 4.847656 174.6875 5.324219 174.097656 5.324219 C 173.507812 5.324219 173.027344 4.847656 173.027344 4.261719 C 173.027344 3.671875 173.507812 3.195312 174.097656 3.195312 C 174.6875 3.195312 175.164062 3.671875 175.164062 4.261719 Z M 175.164062 4.261719 "/>
<path style=" stroke:none;fill-rule:nonzero;fill:rgb(90.196078%,90.196078%,90.196078%);fill-opacity:1;" d="M 93.53125 21.476562 C 93.238281 21.476562 92.996094 21.714844 92.996094 22.007812 C 92.996094 22.152344 93.054688 22.285156 93.152344 22.382812 C 93.253906 22.484375 93.386719 22.542969 93.53125 22.542969 L 173.382812 22.542969 C 173.679688 22.542969 173.917969 22.304688 173.917969 22.007812 C 173.917969 21.867188 173.863281 21.734375 173.761719 21.636719 C 173.660156 21.53125 173.527344 21.476562 173.382812 21.476562 Z M 93.53125 21.476562 "/>
<path style=" stroke:none;fill-rule:nonzero;fill:rgb(42.352941%,38.823529%,100%);fill-opacity:1;" d="M 163.425781 21.300781 L 163.425781 22.71875 L 93.53125 22.71875 C 93.335938 22.71875 93.15625 22.640625 93.03125 22.507812 C 92.898438 22.382812 92.820312 22.203125 92.820312 22.007812 C 92.820312 21.617188 93.140625 21.300781 93.53125 21.300781 Z M 163.425781 21.300781 "/>
<path style=" stroke:none;fill-rule:nonzero;fill:rgb(90.196078%,90.196078%,90.196078%);fill-opacity:1;" d="M 172.496094 18.636719 L 165.378906 18.636719 C 164.597656 18.636719 163.957031 18 163.957031 17.21875 C 163.957031 16.433594 164.597656 15.796875 165.378906 15.796875 L 172.496094 15.796875 C 173.28125 15.796875 173.917969 16.433594 173.917969 17.21875 C 173.917969 18 173.28125 18.636719 172.496094 18.636719 Z M 172.496094 18.636719 "/>
<path style=" stroke:none;fill-rule:nonzero;fill:rgb(90.196078%,90.196078%,90.196078%);fill-opacity:1;" d="M 125.894531 11.183594 L 94.066406 11.183594 C 93.28125 11.183594 92.640625 10.546875 92.640625 9.761719 C 92.640625 8.980469 93.28125 8.34375 94.066406 8.34375 L 125.894531 8.34375 C 126.679688 8.34375 127.316406 8.980469 127.316406 9.761719 C 127.316406 10.546875 126.679688 11.183594 125.894531 11.183594 Z M 125.894531 11.183594 "/>
<path style=" stroke:none;fill-rule:nonzero;fill:rgb(90.196078%,90.196078%,90.196078%);fill-opacity:1;" d="M 93.53125 37.449219 C 93.238281 37.449219 92.996094 37.691406 92.996094 37.984375 C 92.996094 38.125 93.054688 38.257812 93.152344 38.355469 C 93.253906 38.460938 93.386719 38.515625 93.53125 38.515625 L 173.382812 38.515625 C 173.679688 38.515625 173.917969 38.277344 173.917969 37.984375 C 173.917969 37.839844 173.863281 37.707031 173.761719 37.609375 C 173.660156 37.507812 173.527344 37.449219 173.382812 37.449219 Z M 93.53125 37.449219 "/>
<path style=" stroke:none;fill-rule:nonzero;fill:rgb(42.352941%,38.823529%,100%);fill-opacity:1;" d="M 136.03125 37.273438 L 136.03125 38.695312 L 93.53125 38.695312 C 93.335938 38.695312 93.15625 38.617188 93.03125 38.484375 C 92.898438 38.355469 92.820312 38.179688 92.820312 37.984375 C 92.820312 37.59375 93.140625 37.273438 93.53125 37.273438 Z M 136.03125 37.273438 "/>
<path style=" stroke:none;fill-rule:nonzero;fill:rgb(90.196078%,90.196078%,90.196078%);fill-opacity:1;" d="M 172.496094 34.609375 L 165.378906 34.609375 C 164.597656 34.609375 163.957031 33.972656 163.957031 33.191406 C 163.957031 32.40625 164.597656 31.769531 165.378906 31.769531 L 172.496094 31.769531 C 173.28125 31.769531 173.917969 32.40625 173.917969 33.191406 C 173.917969 33.972656 173.28125 34.609375 172.496094 34.609375 Z M 172.496094 34.609375 "/>
</g>
</svg>
