<?xml version="1.0" encoding="UTF-8"?>
<svg xmlns="http://www.w3.org/2000/svg" xmlns:xlink="http://www.w3.org/1999/xlink" width="215px" height="215px" viewBox="0 0 215 247" version="1.1">
<g id="surface1">
<path style=" stroke:none;fill-rule:nonzero;fill:rgb(94.901961%,94.901961%,94.901961%);fill-opacity:1;" d="M 202.363281 201.21875 C 201.941406 200.503906 200.109375 201.269531 199.773438 200.621094 C 199.4375 199.976562 201.136719 198.992188 202.109375 196.75 C 202.285156 196.34375 203.390625 193.792969 202.570312 193.003906 C 201.023438 191.511719 193.929688 197.671875 191.449219 195.65625 C 190.90625 195.214844 190.523438 194.332031 188.878906 192.898438 C 188.222656 192.328125 187.824219 192.070312 187.441406 192.164062 C 186.898438 192.300781 186.855469 193.03125 186.269531 194.460938 C 185.394531 196.609375 184.875 196.480469 184.367188 198.195312 C 183.988281 199.464844 184.074219 200.207031 183.628906 200.351562 C 183 200.554688 182.417969 199.203125 181.617188 199.324219 C 180.804688 199.449219 180.308594 201.019531 180.152344 202.195312 C 179.863281 204.402344 180.671875 205.859375 181.121094 207.390625 C 181.609375 209.054688 181.902344 211.589844 180.773438 215.171875 L 169.609375 246.617188 C 172.074219 240.164062 179.210938 222.476562 182.207031 215.902344 C 183.074219 214.007812 184.03125 212.082031 185.992188 211.320312 C 187.882812 210.589844 190.476562 211.027344 193.785156 210.230469 C 194.171875 210.136719 195.246094 209.863281 195.378906 209.234375 C 195.492188 208.710938 194.859375 208.421875 194.957031 207.933594 C 195.085938 207.277344 196.328125 207.269531 197.851562 206.515625 C 198.925781 205.980469 199.597656 205.347656 200.171875 204.804688 C 200.34375 204.640625 202.925781 202.167969 202.363281 201.21875 Z M 202.363281 201.21875 "/>
<path style=" stroke:none;fill-rule:nonzero;fill:rgb(94.901961%,94.901961%,94.901961%);fill-opacity:1;" d="M 158.4375 217.773438 C 157.964844 217.773438 157.8125 218.894531 157.398438 218.871094 C 156.984375 218.851562 156.992188 217.730469 156.171875 216.609375 C 156.023438 216.40625 155.089844 215.128906 154.464844 215.300781 C 153.285156 215.628906 154.265625 220.886719 152.558594 221.523438 C 152.183594 221.660156 151.640625 221.59375 150.460938 221.988281 C 149.992188 222.144531 149.75 222.265625 149.6875 222.484375 C 149.597656 222.789062 149.941406 223.019531 150.476562 223.71875 C 151.28125 224.769531 151.066406 224.984375 151.761719 225.730469 C 152.277344 226.285156 152.664062 226.453125 152.605469 226.714844 C 152.523438 227.082031 151.695312 226.976562 151.523438 227.40625 C 151.347656 227.839844 151.976562 228.535156 152.511719 228.953125 C 153.507812 229.730469 154.457031 229.753906 155.339844 229.976562 C 156.296875 230.21875 157.625 230.804688 159.058594 232.390625 L 171.277344 246.945312 C 168.820312 243.871094 162.195312 235.265625 159.832031 231.898438 C 159.152344 230.925781 158.480469 229.902344 158.675781 228.71875 C 158.859375 227.582031 159.824219 226.433594 160.386719 224.582031 C 160.453125 224.363281 160.628906 223.761719 160.359375 223.511719 C 160.132812 223.308594 159.808594 223.53125 159.597656 223.34375 C 159.3125 223.089844 159.667969 222.480469 159.738281 221.515625 C 159.785156 220.832031 159.667969 220.324219 159.566406 219.882812 C 159.535156 219.75 159.066406 217.769531 158.4375 217.773438 Z M 158.4375 217.773438 "/>
<path style=" stroke:none;fill-rule:nonzero;fill:rgb(94.901961%,94.901961%,94.901961%);fill-opacity:1;" d="M 167.859375 219.886719 L 167.574219 217.347656 L 167.707031 217.15625 C 168.308594 216.265625 168.613281 215.394531 168.617188 214.570312 C 168.617188 214.441406 168.613281 214.308594 168.605469 214.175781 C 168.582031 213.644531 168.550781 212.988281 168.894531 212.21875 C 169.085938 211.792969 169.625 210.800781 170.441406 210.921875 C 170.660156 210.953125 170.824219 211.054688 170.949219 211.171875 C 170.96875 211.144531 170.988281 211.113281 171.007812 211.082031 C 171.261719 210.695312 171.460938 210.53125 171.65625 210.371094 C 171.804688 210.246094 171.957031 210.121094 172.195312 209.824219 C 172.300781 209.691406 172.382812 209.574219 172.453125 209.480469 C 172.664062 209.1875 172.9375 208.835938 173.421875 208.84375 C 173.941406 208.867188 174.210938 209.296875 174.390625 209.578125 C 174.710938 210.082031 174.859375 210.449219 174.953125 210.6875 C 174.988281 210.777344 175.027344 210.878906 175.050781 210.90625 C 175.214844 211.152344 176.570312 210.921875 177.082031 210.839844 C 178.230469 210.648438 179.222656 210.484375 179.632812 211.207031 C 179.925781 211.722656 179.707031 212.410156 178.964844 213.292969 C 178.734375 213.570312 178.488281 213.78125 178.269531 213.945312 C 178.449219 214.050781 178.613281 214.21875 178.679688 214.476562 C 178.832031 215.09375 178.304688 215.710938 177.105469 216.3125 C 176.808594 216.464844 176.40625 216.664062 175.847656 216.761719 C 175.582031 216.808594 175.34375 216.820312 175.140625 216.824219 C 175.136719 216.941406 175.109375 217.070312 175.039062 217.203125 C 174.828125 217.585938 174.390625 217.769531 173.730469 217.726562 C 173.003906 217.6875 172.40625 217.550781 171.878906 217.429688 C 171.417969 217.324219 171.019531 217.234375 170.710938 217.253906 C 170.132812 217.300781 169.6875 217.765625 169.164062 218.363281 Z M 167.859375 219.886719 "/>
<path style=" stroke:none;fill-rule:nonzero;fill:rgb(94.901961%,94.901961%,94.901961%);fill-opacity:1;" d="M 169.179688 204.769531 L 166.792969 205.6875 L 166.574219 205.609375 C 165.5625 205.253906 164.644531 205.179688 163.84375 205.386719 C 163.714844 205.417969 163.589844 205.457031 163.464844 205.496094 C 162.957031 205.65625 162.328125 205.851562 161.496094 205.714844 C 161.035156 205.636719 159.9375 205.363281 159.851562 204.546875 C 159.824219 204.328125 159.882812 204.140625 159.964844 203.992188 C 159.929688 203.980469 159.898438 203.96875 159.859375 203.957031 C 159.421875 203.8125 159.210938 203.660156 159.007812 203.511719 C 158.851562 203.402344 158.691406 203.285156 158.339844 203.128906 C 158.1875 203.058594 158.054688 203.007812 157.941406 202.964844 C 157.605469 202.835938 157.199219 202.660156 157.082031 202.191406 C 156.972656 201.683594 157.320312 201.3125 157.546875 201.066406 C 157.957031 200.628906 158.269531 200.394531 158.480469 200.242188 C 158.554688 200.183594 158.644531 200.121094 158.667969 200.09375 C 158.863281 199.871094 158.296875 198.617188 158.085938 198.144531 C 157.609375 197.085938 157.199219 196.167969 157.792969 195.585938 C 158.21875 195.171875 158.9375 195.210938 159.984375 195.703125 C 160.308594 195.855469 160.574219 196.039062 160.789062 196.210938 C 160.847656 196.007812 160.964844 195.808594 161.203125 195.679688 C 161.757812 195.375 162.488281 195.730469 163.375 196.734375 C 163.597656 196.984375 163.894531 197.320312 164.128906 197.839844 C 164.242188 198.082031 164.3125 198.308594 164.371094 198.503906 C 164.484375 198.480469 164.613281 198.472656 164.757812 198.507812 C 165.1875 198.613281 165.476562 198.992188 165.601562 199.640625 C 165.746094 200.351562 165.765625 200.964844 165.78125 201.507812 C 165.796875 201.980469 165.808594 202.386719 165.910156 202.679688 C 166.101562 203.226562 166.660156 203.542969 167.375 203.894531 Z M 169.179688 204.769531 "/>
<path style=" stroke:none;fill-rule:nonzero;fill:rgb(94.901961%,94.901961%,94.901961%);fill-opacity:1;" d="M 167.859375 197.289062 L 167.574219 194.75 L 167.707031 194.554688 C 168.308594 193.667969 168.613281 192.796875 168.617188 191.972656 C 168.617188 191.839844 168.613281 191.710938 168.605469 191.574219 C 168.582031 191.046875 168.550781 190.386719 168.894531 189.621094 C 169.085938 189.191406 169.625 188.203125 170.441406 188.324219 C 170.660156 188.355469 170.824219 188.457031 170.949219 188.574219 C 170.96875 188.542969 170.988281 188.515625 171.007812 188.484375 C 171.261719 188.097656 171.460938 187.929688 171.65625 187.769531 C 171.804688 187.648438 171.957031 187.523438 172.195312 187.222656 C 172.300781 187.09375 172.382812 186.976562 172.453125 186.878906 C 172.664062 186.585938 172.9375 186.238281 173.421875 186.242188 C 173.941406 186.269531 174.210938 186.695312 174.390625 186.980469 C 174.710938 187.484375 174.859375 187.847656 174.953125 188.089844 C 174.988281 188.179688 175.027344 188.277344 175.050781 188.308594 C 175.214844 188.554688 176.570312 188.324219 177.082031 188.242188 C 178.230469 188.050781 179.222656 187.882812 179.632812 188.609375 C 179.925781 189.125 179.707031 189.808594 178.964844 190.695312 C 178.734375 190.972656 178.488281 191.179688 178.269531 191.34375 C 178.449219 191.453125 178.613281 191.617188 178.679688 191.878906 C 178.832031 192.496094 178.304688 193.109375 177.105469 193.714844 C 176.808594 193.863281 176.40625 194.066406 175.847656 194.164062 C 175.582031 194.207031 175.34375 194.21875 175.140625 194.226562 C 175.136719 194.34375 175.109375 194.472656 175.039062 194.601562 C 174.828125 194.988281 174.390625 195.171875 173.730469 195.128906 C 173.003906 195.089844 172.40625 194.953125 171.878906 194.828125 C 171.417969 194.722656 171.019531 194.636719 170.710938 194.65625 C 170.132812 194.703125 169.6875 195.164062 169.164062 195.765625 Z M 167.859375 197.289062 "/>
<path style=" stroke:none;fill-rule:nonzero;fill:rgb(94.901961%,94.901961%,94.901961%);fill-opacity:1;" d="M 170.457031 246.578125 L 169.925781 246.242188 L 169.796875 245.628906 L 169.925781 246.242188 L 169.304688 246.316406 C 169.296875 246.257812 169.261719 246.125 169.210938 245.917969 C 168.933594 244.78125 168.085938 241.328125 167.378906 235.886719 C 166.886719 232.085938 166.609375 228.183594 166.550781 224.277344 C 166.492188 220.367188 166.679688 217.40625 166.828125 215.023438 C 166.9375 213.230469 167.074219 211.519531 167.207031 209.855469 C 167.5625 205.40625 167.898438 201.207031 167.648438 196.554688 C 167.59375 195.515625 167.480469 193.355469 166.214844 191.054688 C 165.484375 189.71875 164.472656 188.535156 163.214844 187.535156 L 163.996094 186.550781 C 165.386719 187.65625 166.503906 188.96875 167.316406 190.449219 C 168.71875 193 168.84375 195.355469 168.90625 196.488281 C 169.160156 201.222656 168.820312 205.464844 168.460938 209.953125 C 168.328125 211.613281 168.191406 213.316406 168.078125 215.101562 C 167.933594 217.460938 167.75 220.394531 167.804688 224.257812 C 167.863281 228.117188 168.136719 231.972656 168.625 235.722656 C 169.324219 241.097656 170.15625 244.5 170.429688 245.617188 C 170.578125 246.214844 170.609375 246.339844 170.457031 246.578125 Z M 170.457031 246.578125 "/>
<path style=" stroke:none;fill-rule:nonzero;fill:rgb(94.901961%,94.901961%,94.901961%);fill-opacity:1;" d="M 160.910156 189.53125 C 160.859375 189.53125 160.808594 189.527344 160.753906 189.523438 C 159.6875 189.46875 158.695312 188.828125 157.8125 187.625 C 157.398438 187.058594 157.183594 186.410156 156.761719 185.121094 C 156.695312 184.921875 156.375 183.914062 156.183594 182.527344 C 156.054688 181.621094 156.070312 181.242188 156.25 180.910156 C 156.449219 180.535156 156.773438 180.277344 157.136719 180.101562 C 157.121094 179.980469 157.132812 179.855469 157.1875 179.730469 C 157.398438 179.207031 157.96875 179.277344 158.277344 179.308594 C 158.433594 179.328125 158.625 179.355469 158.835938 179.34375 C 159.167969 179.328125 159.34375 179.230469 159.613281 179.082031 C 159.871094 178.941406 160.1875 178.765625 160.664062 178.667969 C 161.597656 178.472656 162.378906 178.738281 162.636719 178.824219 C 163.996094 179.277344 164.667969 180.335938 165.441406 181.554688 C 165.597656 181.800781 166.125 182.695312 166.476562 183.917969 C 166.730469 184.800781 166.695312 185.191406 166.617188 185.484375 C 166.464844 186.085938 166.097656 186.425781 165.171875 187.183594 C 164.203125 187.980469 163.71875 188.375 163.300781 188.617188 C 162.332031 189.179688 161.722656 189.53125 160.910156 189.53125 Z M 160.910156 189.53125 "/>
<path style=" stroke:none;fill-rule:nonzero;fill:rgb(100%,71.372549%,71.372549%);fill-opacity:1;" d="M 120.539062 70.351562 C 123.9375 68.652344 125.8125 65.523438 124.734375 63.363281 C 123.652344 61.199219 120.019531 60.824219 116.621094 62.523438 C 115.253906 63.183594 114.066406 64.164062 113.15625 65.375 L 98.847656 72.753906 L 102.453125 79.390625 L 116.175781 71.414062 C 117.691406 71.414062 119.191406 71.046875 120.539062 70.351562 Z M 120.539062 70.351562 "/>
<path style=" stroke:none;fill-rule:nonzero;fill:rgb(100%,71.372549%,71.372549%);fill-opacity:1;" d="M 39.488281 241.9375 L 46.296875 241.9375 L 49.535156 215.679688 L 39.484375 215.679688 Z M 39.488281 241.9375 "/>
<path style=" stroke:none;fill-rule:nonzero;fill:rgb(18.431373%,18.039216%,25.490196%);fill-opacity:1;" d="M 62.816406 241.785156 C 63.027344 242.140625 63.140625 243.292969 63.140625 243.707031 C 63.140625 244.984375 62.105469 246.019531 60.828125 246.019531 L 39.742188 246.019531 C 38.871094 246.019531 38.164062 245.3125 38.164062 244.441406 L 38.164062 243.5625 C 38.164062 243.5625 37.121094 240.925781 39.269531 237.675781 C 39.269531 237.675781 41.9375 240.222656 45.925781 236.234375 L 47.105469 234.101562 L 55.617188 240.328125 L 60.335938 240.910156 C 61.371094 241.035156 62.285156 240.890625 62.816406 241.785156 Z M 62.816406 241.785156 "/>
<path style=" stroke:none;fill-rule:nonzero;fill:rgb(100%,71.372549%,71.372549%);fill-opacity:1;" d="M 50.179688 213.066406 L 56.226562 216.195312 L 71.179688 194.367188 L 62.253906 189.746094 Z M 50.179688 213.066406 "/>
<path style=" stroke:none;fill-rule:nonzero;fill:rgb(18.431373%,18.039216%,25.490196%);fill-opacity:1;" d="M 70.96875 223.652344 C 70.992188 224.066406 70.5625 225.140625 70.371094 225.507812 C 69.785156 226.644531 68.390625 227.085938 67.257812 226.5 L 48.527344 216.804688 C 47.757812 216.40625 47.453125 215.457031 47.855469 214.683594 L 48.257812 213.902344 C 48.257812 213.902344 48.542969 211.082031 51.945312 209.179688 C 51.945312 209.179688 53.148438 212.667969 58.523438 210.960938 L 60.546875 209.609375 L 65.246094 219.050781 L 69.167969 221.734375 C 70.027344 222.324219 70.910156 222.613281 70.96875 223.652344 Z M 70.96875 223.652344 "/>
<path style=" stroke:none;fill-rule:nonzero;fill:rgb(42.352941%,38.823529%,100%);fill-opacity:1;" d="M 32.570312 33.523438 L 50.429688 33.523438 L 50.039062 39.34375 L 61.683594 76.453125 L 63.867188 101.191406 L 42.03125 104.828125 L 31.84375 58.988281 L 34.027344 37.886719 Z M 32.570312 33.523438 "/>
<path style=" stroke:none;fill-rule:nonzero;fill:rgb(18.431373%,18.039216%,25.490196%);fill-opacity:1;" d="M 33.664062 38.25 L 14.738281 47.710938 L 26.382812 87.003906 L 24.199219 127.023438 C 24.199219 127.023438 54.042969 136.480469 52.585938 109.558594 C 51.132812 82.636719 51.132812 78.269531 51.132812 78.269531 Z M 33.664062 38.25 "/>
<path style=" stroke:none;fill-rule:nonzero;fill:rgb(18.431373%,18.039216%,25.490196%);fill-opacity:1;" d="M 63.867188 43.152344 C 63.867188 43.152344 68.597656 39.707031 70.78125 44.800781 C 72.964844 49.894531 87.160156 75.722656 87.160156 75.722656 L 109.359375 65.902344 L 113 73.90625 C 113 73.90625 94.800781 91.367188 83.882812 89.183594 C 72.964844 87.003906 64.234375 68.085938 64.234375 68.085938 Z M 63.867188 43.152344 "/>
<path style=" stroke:none;fill-rule:nonzero;fill:rgb(18.431373%,18.039216%,25.490196%);fill-opacity:1;" d="M 26.382812 119.746094 C 26.382812 119.746094 25.65625 131.386719 27.113281 140.847656 C 28.566406 150.304688 38.394531 230.707031 38.394531 230.707031 L 50.765625 229.980469 L 51.859375 135.753906 L 69.328125 163.402344 L 54.042969 204.878906 L 64.597656 209.609375 L 86.796875 164.128906 L 71.511719 112.46875 L 67.144531 99.371094 L 34.390625 103.011719 Z M 26.382812 119.746094 "/>
<path style=" stroke:none;fill-rule:nonzero;fill:rgb(18.431373%,18.039216%,25.490196%);fill-opacity:1;" d="M 75.148438 122.65625 C 75.148438 122.65625 55.5 128.476562 51.132812 78.269531 L 50.144531 37.789062 L 68.597656 42.617188 L 66.417969 79 Z M 75.148438 122.65625 "/>
<path style=" stroke:none;fill-rule:nonzero;fill:rgb(100%,71.372549%,71.372549%);fill-opacity:1;" d="M 54.769531 15.695312 C 54.769531 22.929688 48.90625 28.792969 41.667969 28.792969 C 34.433594 28.792969 28.566406 22.929688 28.566406 15.695312 C 28.566406 8.460938 34.433594 2.597656 41.667969 2.597656 C 48.90625 2.597656 54.769531 8.460938 54.769531 15.695312 Z M 54.769531 15.695312 "/>
<path style=" stroke:none;fill-rule:nonzero;fill:rgb(18.431373%,18.039216%,25.490196%);fill-opacity:1;" d="M 33.300781 28.429688 C 33.300781 28.429688 27.476562 21.878906 26.75 18.96875 C 26.019531 16.058594 26.019531 8.054688 26.75 7.328125 C 27.476562 6.601562 35.484375 -0.675781 38.394531 0.0507812 C 41.304688 0.777344 47.078125 4.417969 52.222656 4.417969 C 53.679688 4.417969 54.40625 11.691406 54.40625 11.691406 L 48.582031 12.421875 C 48.582031 12.421875 41.304688 8.78125 42.03125 12.421875 C 42.761719 16.058594 36.9375 16.058594 36.9375 16.058594 L 37.667969 18.96875 L 35.484375 19.695312 L 34.027344 16.785156 C 34.027344 16.785156 34.753906 23.335938 36.9375 26.246094 C 39.121094 29.15625 33.300781 28.429688 33.300781 28.429688 Z M 33.300781 28.429688 "/>
<path style=" stroke:none;fill-rule:nonzero;fill:rgb(100%,71.372549%,71.372549%);fill-opacity:1;" d="M 27.496094 133.195312 C 29.496094 136.425781 32.78125 138.011719 34.835938 136.742188 C 36.894531 135.46875 36.941406 131.820312 34.941406 128.589844 C 34.160156 127.289062 33.082031 126.191406 31.789062 125.394531 L 23.152344 111.816406 L 16.867188 116.003906 L 26.046875 128.945312 C 26.183594 130.457031 26.683594 131.914062 27.496094 133.195312 Z M 27.496094 133.195312 "/>
<path style=" stroke:none;fill-rule:nonzero;fill:rgb(18.431373%,18.039216%,25.490196%);fill-opacity:1;" d="M 17.648438 47.710938 L 14.011719 47.710938 C 14.011719 47.710938 -0.546875 80.453125 0.183594 87.003906 C 0.183594 87.003906 0.183594 92.824219 3.820312 97.1875 C 7.460938 101.554688 22.746094 126.292969 22.746094 126.292969 L 29.296875 121.199219 L 16.195312 90.640625 L 24.199219 58.625 Z M 17.648438 47.710938 "/>
<path style=" stroke:none;fill-rule:nonzero;fill:rgb(90.196078%,90.196078%,90.196078%);fill-opacity:1;" d="M 214.519531 246.007812 C 214.519531 246.238281 214.332031 246.425781 214.097656 246.425781 L 0.421875 246.425781 C 0.1875 246.425781 0 246.238281 0 246.007812 C 0 245.773438 0.1875 245.585938 0.421875 245.585938 L 214.097656 245.585938 C 214.332031 245.585938 214.519531 245.773438 214.519531 246.007812 Z M 214.519531 246.007812 "/>
<path style=" stroke:none;fill-rule:nonzero;fill:rgb(42.352941%,38.823529%,100%);fill-opacity:1;" d="M 135.753906 93.253906 C 134.035156 93.253906 132.398438 92.550781 131.21875 91.300781 C 123.628906 83.234375 119.453125 72.695312 119.453125 61.625 C 119.453125 52.398438 122.3125 43.589844 127.730469 36.152344 C 128.800781 34.683594 130.460938 33.761719 132.289062 33.621094 C 134.140625 33.480469 135.957031 34.160156 137.261719 35.480469 L 159.269531 57.703125 C 161.472656 59.925781 161.699219 63.476562 159.792969 65.960938 L 140.777344 90.777344 C 139.644531 92.253906 137.933594 93.152344 136.074219 93.246094 C 135.96875 93.25 135.863281 93.253906 135.753906 93.253906 Z M 135.753906 93.253906 "/>
<path style=" stroke:none;fill-rule:nonzero;fill:rgb(90.196078%,90.196078%,90.196078%);fill-opacity:1;" d="M 170.820312 106.214844 C 164.035156 106.214844 157.523438 104.710938 151.46875 101.746094 C 149.269531 100.667969 147.6875 98.683594 147.125 96.300781 C 146.566406 93.914062 147.097656 91.433594 148.585938 89.488281 L 164.4375 68.808594 C 167.320312 65.046875 166.976562 59.671875 163.644531 56.300781 L 147.417969 39.917969 C 145.074219 37.550781 144.011719 34.304688 144.503906 31.007812 C 144.996094 27.695312 146.972656 24.882812 149.929688 23.292969 C 156.589844 19.699219 164.140625 17.882812 171.761719 18.046875 C 194.730469 18.523438 213.660156 36.847656 214.859375 59.753906 C 215.503906 71.992188 211.226562 83.613281 202.816406 92.46875 C 194.402344 101.332031 183.039062 106.214844 170.820312 106.214844 Z M 170.835938 19.539062 C 163.777344 19.539062 165.46875 26.230469 159.292969 29.558594 C 156.761719 30.925781 146.414062 28.390625 145.988281 31.230469 C 145.566406 34.050781 146.480469 36.832031 148.488281 38.863281 L 164.710938 55.246094 C 168.574219 59.144531 168.96875 65.367188 165.628906 69.722656 L 149.78125 90.402344 C 148.566406 91.988281 148.132812 94.011719 148.589844 95.957031 C 149.046875 97.898438 150.335938 99.519531 152.128906 100.398438 C 157.976562 103.261719 164.265625 93.1875 170.820312 93.1875 C 182.621094 93.1875 193.597656 99.996094 201.726562 91.4375 C 209.847656 82.878906 213.980469 71.65625 213.359375 59.832031 C 212.199219 37.707031 193.914062 20.011719 171.730469 19.550781 C 171.433594 19.542969 171.132812 19.539062 170.835938 19.539062 Z M 170.835938 19.539062 "/>
<path style=" stroke:none;fill-rule:nonzero;fill:rgb(0%,0%,0%);fill-opacity:1;" d="M 173.710938 62.308594 C 172.855469 61.308594 172.425781 59.839844 172.425781 57.910156 C 172.425781 56 172.855469 54.542969 173.710938 53.542969 C 174.566406 52.542969 175.753906 52.039062 177.269531 52.039062 C 178.804688 52.039062 180.003906 52.542969 180.871094 53.542969 C 181.734375 54.542969 182.167969 56 182.167969 57.910156 C 182.167969 59.839844 181.734375 61.308594 180.871094 62.308594 C 180.003906 63.308594 178.804688 63.808594 177.269531 63.808594 C 175.753906 63.808594 174.566406 63.308594 173.710938 62.308594 Z M 178.8125 60.753906 C 179.136719 60.175781 179.300781 59.226562 179.300781 57.910156 C 179.300781 56.632812 179.132812 55.699219 178.800781 55.109375 C 178.464844 54.527344 177.957031 54.230469 177.269531 54.230469 C 176.601562 54.230469 176.105469 54.527344 175.78125 55.109375 C 175.457031 55.699219 175.292969 56.632812 175.292969 57.910156 C 175.292969 59.210938 175.457031 60.152344 175.78125 60.738281 C 176.105469 61.324219 176.601562 61.617188 177.269531 61.617188 C 177.972656 61.617188 178.488281 61.328125 178.8125 60.753906 Z M 178.570312 69 L 188.230469 52.3125 C 189.5625 52.3125 190.394531 53.753906 189.726562 54.910156 L 180.058594 71.574219 C 178.734375 71.574219 177.910156 70.140625 178.570312 69 Z M 187.433594 70.261719 C 186.574219 69.261719 186.148438 67.785156 186.148438 65.839844 C 186.148438 63.925781 186.574219 62.476562 187.433594 61.484375 C 188.289062 60.492188 189.484375 59.996094 191.019531 59.996094 C 192.550781 59.996094 193.746094 60.492188 194.605469 61.484375 C 195.460938 62.476562 195.890625 63.9375 195.890625 65.867188 C 195.890625 67.796875 195.460938 69.261719 194.605469 70.261719 C 193.746094 71.261719 192.550781 71.761719 191.019531 71.761719 C 189.484375 71.761719 188.289062 71.261719 187.433594 70.261719 Z M 192.535156 68.691406 C 192.859375 68.105469 193.019531 67.164062 193.019531 65.867188 C 193.019531 64.585938 192.855469 63.652344 192.519531 63.066406 C 192.1875 62.480469 191.683594 62.1875 191.019531 62.1875 C 190.332031 62.1875 189.828125 62.480469 189.503906 63.066406 C 189.175781 63.652344 189.015625 64.585938 189.015625 65.867188 C 189.015625 67.164062 189.175781 68.105469 189.503906 68.691406 C 189.828125 69.277344 190.332031 69.570312 191.019531 69.570312 C 191.703125 69.570312 192.207031 69.277344 192.535156 68.691406 Z M 192.535156 68.691406 "/>
</g>
</svg>
